<?xml version="1.0" encoding="utf-8"?>
<!-- Generator: Adobe Illustrator 19.2.1, SVG Export Plug-In . SVG Version: 6.00 Build 0)  -->
<!DOCTYPE svg PUBLIC "-//W3C//DTD SVG 1.1//EN" "http://www.w3.org/Graphics/SVG/1.1/DTD/svg11.dtd">
<svg version="1.1" id="Layer_1" xmlns="http://www.w3.org/2000/svg" xmlns:xlink="http://www.w3.org/1999/xlink" x="0px" y="0px"
	 width="500px" height="500px" viewBox="0 0 500 500" enable-background="new 0 0 500 500" xml:space="preserve">
<path fill="#262729" d="M476.6-1H23.4C10.5-1,0,9.5,0,22.4v453.1C0,488.5,10.5,499,23.4,499h453.1c12.9,0,23.4-10.5,23.4-23.4V22.4
	C500,9.5,489.5-1,476.6-1z M178.4,359.6L147,377.4c-0.6,0.3-1.3,0.5-2,0.5c-0.4,0-0.7-0.1-1.1-0.2c-1-0.3-1.9-1-2.4-1.9L70.8,250.6
	c-0.7-1.2-0.7-2.8,0-4l70.7-125.2c0.5-0.9,1.4-1.6,2.4-1.9c1-0.3,2.1-0.2,3.1,0.4l31.4,17.7c2,1.1,2.6,3.6,1.5,5.5l-59.6,105.5
	L180,354.1C181.1,356,180.4,358.5,178.4,359.6z M185.1,310.3c-1.4,0-2.8-0.7-3.5-2l-18-31.3c-0.5-0.9-0.7-2-0.4-3.1
	c0.3-1,1-1.9,1.9-2.5l146.8-85.6c0.9-0.5,2-0.7,3.1-0.4c1,0.3,1.9,1,2.5,1.9l18,31.3c1.1,1.9,0.4,4.4-1.5,5.5l-146.8,85.6
	C186.5,310.2,185.8,310.3,185.1,310.3z M429.3,251.4l-70.7,125.2c-0.5,0.9-1.4,1.6-2.4,1.9c-0.4,0.1-0.7,0.1-1.1,0.1
	c-0.7,0-1.4-0.2-2-0.5l-31.4-17.7c-0.9-0.5-1.6-1.4-1.9-2.4c-0.3-1-0.2-2.1,0.4-3.1l59.6-105.5L320,143.9c-0.5-0.9-0.7-2-0.4-3.1
	c0.3-1,1-1.9,1.9-2.4l31.4-17.7c1.9-1.1,4.4-0.4,5.5,1.5l70.7,125.2C429.9,248.6,429.9,250.2,429.3,251.4z"/>
</svg>
